<svg width="176" height="60" viewBox="0 0 176 60" fill="none" xmlns="http://www.w3.org/2000/svg">
<g clip-path="url(#clip0)">
<path d="M130.32 54.2627C129.871 54.6926 129.274 54.9369 128.65 54.9466C128.386 54.9652 128.122 54.9112 127.888 54.7906C127.653 54.6699 127.456 54.4873 127.319 54.2627C127.086 53.8187 126.997 53.3213 127.694 50.5505C128.391 47.7796 128.739 47.2645 129.195 46.8204C129.644 46.3994 130.239 46.1644 130.856 46.1633C131.119 46.1392 131.383 46.1879 131.62 46.3039C131.856 46.4199 132.056 46.5987 132.197 46.8204C132.429 47.2645 132.509 47.7796 131.812 50.5505C131.116 53.3213 130.785 53.8098 130.32 54.2627ZM132.482 56.6073C133.369 55.8993 134.066 54.9839 134.51 53.943C134.964 52.8421 135.32 51.704 135.574 50.5416C135.893 49.4295 136.112 48.2911 136.226 47.1402C136.329 46.196 136.077 45.2472 135.52 44.4759C135.073 43.8994 134.486 43.4448 133.814 43.1545C133.142 42.8641 132.408 42.7474 131.678 42.8151C129.967 42.7893 128.305 43.3791 126.997 44.4759C126.107 45.1831 125.407 46.0984 124.96 47.1402C124.508 48.2415 124.152 49.3795 123.897 50.5416C123.576 51.6533 123.357 52.7918 123.245 53.943C123.141 54.8873 123.392 55.8363 123.95 56.6073C124.397 57.1824 124.982 57.6361 125.652 57.9264C126.322 58.2168 127.055 58.3343 127.783 58.268C129.5 58.2982 131.17 57.7081 132.482 56.6073ZM114.614 49.3782L115.392 46.2876H117.518C117.716 46.2675 117.915 46.2973 118.098 46.3743C118.281 46.4513 118.441 46.5729 118.564 46.7279C118.687 46.8829 118.769 47.0663 118.801 47.261C118.834 47.4557 118.817 47.6555 118.751 47.8418C118.63 48.2807 118.368 48.6683 118.005 48.9457C117.643 49.2231 117.198 49.3749 116.741 49.3782H114.614ZM116.473 56.7316C116.714 57.4776 116.982 58.2236 117.947 58.2236C118.467 58.1942 118.965 58.0087 119.377 57.6915C119.788 57.3744 120.094 56.9406 120.252 56.4474C120.363 55.9276 120.304 55.3858 120.082 54.9021C119.743 53.8542 119.406 52.8062 119.072 51.7583C119.927 51.3641 120.685 50.7916 121.297 50.0798C121.864 49.4248 122.273 48.6504 122.494 47.8151C122.664 47.2514 122.709 46.6577 122.626 46.0751C122.542 45.4924 122.333 44.9347 122.012 44.4403C121.599 43.923 121.064 43.5147 120.455 43.2514C119.846 42.9881 119.181 42.8779 118.519 42.9306H114.748C114.068 42.868 113.388 43.0543 112.837 43.4545C112.313 43.9149 111.968 44.5435 111.863 45.2307L110.549 50.4617C110.109 52.2023 109.671 53.946 109.236 55.6926C109.032 56.1994 108.97 56.752 109.057 57.2911C109.16 57.576 109.356 57.8184 109.613 57.9794C109.871 58.1404 110.175 58.2108 110.478 58.1792C110.839 58.1796 111.195 58.1001 111.521 57.9465C111.847 57.7929 112.135 57.569 112.363 57.2911C112.701 56.8161 112.922 56.2683 113.006 55.6926L113.81 52.4776H115.088L115.767 54.6002C116.008 55.3284 116.24 56.03 116.473 56.7405V56.7316ZM101.053 49.3959L101.839 46.2787H103.956C104.154 46.257 104.355 46.2856 104.539 46.3618C104.723 46.4381 104.885 46.5595 105.009 46.7148C105.133 46.8701 105.215 47.0541 105.248 47.2496C105.282 47.4451 105.264 47.6458 105.198 47.8329C105.077 48.2751 104.815 48.6661 104.451 48.9466C104.086 49.2271 103.64 49.3817 103.179 49.3871L101.053 49.3959ZM95.6922 55.7014C95.4939 56.21 95.4383 56.7625 95.5314 57.3C95.6324 57.5858 95.8279 57.8291 96.0858 57.9903C96.3437 58.1516 96.649 58.2213 96.9519 58.1881C97.3126 58.1879 97.6688 58.1081 97.9947 57.9545C98.3207 57.8009 98.6084 57.5774 98.8369 57.3C99.1721 56.8243 99.3895 56.2765 99.4713 55.7014C99.7214 54.7068 99.9716 53.7121 100.222 52.7174H102.518C104.068 52.7284 105.574 52.1972 106.77 51.2165C107.84 50.3498 108.607 49.1684 108.959 47.8418C109.129 47.278 109.173 46.6844 109.09 46.1018C109.007 45.5193 108.797 44.9616 108.477 44.467C108.064 43.9497 107.529 43.5413 106.92 43.278C106.311 43.0147 105.646 42.9045 104.984 42.9572H101.213C100.533 42.8946 99.8534 43.081 99.3015 43.4812C98.7782 43.942 98.4336 44.5704 98.3277 45.2574L97.0144 50.4883C96.5677 52.229 96.127 53.9726 95.6922 55.7192V55.7014Z" fill="white"/>
<path d="M123.45 37.6642C124.978 37.9839 134.877 37.8329 137.745 37.8862C141.104 37.9395 138.817 37.7175 142.998 37.8862C146.571 38.0372 148.045 37.5398 148.93 36.9981C150.538 36.039 151.449 34.3338 151.976 31.1722C152.009 30.6718 152.159 30.1861 152.417 29.7547C152.674 29.3234 153.03 28.9586 153.456 28.6901C153.882 28.4217 154.366 28.2572 154.868 28.2101C155.37 28.1629 155.876 28.2346 156.345 28.4191C157.605 28.8009 158.132 30.8613 158.525 32.7974C158.699 33.8774 159.149 34.8948 159.833 35.7518C160.517 36.6088 161.411 37.2765 162.429 37.6908C163.328 38.0472 164.305 38.1645 165.263 38.0311C166.222 37.8976 167.129 37.5181 167.894 36.9299C168.66 36.3417 169.259 35.5652 169.63 34.6769C170.002 33.7887 170.134 32.8195 170.014 31.8649C169.906 31.0651 169.572 30.3122 169.05 29.6942C168.528 29.0762 167.84 28.6185 167.066 28.3747C166.173 28.0283 166.485 27.2201 166.95 26.8027C167.274 26.5008 167.676 26.2947 168.111 26.2077C169.532 25.8613 171.006 26.2077 172.435 26.0834C174.812 25.888 178.144 21.3676 174.222 18.1704C173.497 17.5294 172.615 17.09 171.664 16.8966C170.713 16.7033 169.728 16.7628 168.808 17.0691C167.79 17.4835 166.896 18.1512 166.212 19.0082C165.528 19.8652 165.078 20.8825 164.904 21.9626C164.547 23.8898 164.064 25.808 162.724 26.3409C160.937 27.0603 159.043 26.1988 158.364 23.57C157.524 20.3196 156.006 18.2414 154.308 17.7086C151.565 16.8205 149.966 17.6109 148.617 19.0851C146.929 20.9324 147.197 22.8507 146.991 25.4262C146.696 27.007 146.098 27.3178 145.088 27.5132C141.577 28.1704 139.094 27.7175 135.725 27.7352C128.578 27.7352 121.1 27.4777 113.962 28.0638C111.184 28.2947 108.093 29.6713 107.271 32.3977C107.092 32.9928 107.744 32.7263 107.941 32.2645C108.968 29.8223 111.514 29.3249 114.052 29.1739C120.698 28.7565 128.677 28.9963 135.69 29.1739C139.263 29.2894 142.837 29.5647 146.089 29.1739C149.341 28.7832 147.304 23.4279 149.439 20.213C149.913 19.6041 150.566 19.1571 151.307 18.9342C152.049 18.7114 152.842 18.7238 153.576 18.9697C154.969 19.5825 155.827 21.1278 156.381 23.5523C157.274 27.3889 159.91 28.6411 162.581 28.0638C164.082 27.7441 165.333 26.2166 165.753 24.0851C166.575 19.9111 168.79 18.3924 171.202 18.6411C175.41 19.0851 174.883 25.213 171.131 25.6038C170.238 25.6571 168.388 25.5239 167.772 25.5327C166.53 25.5327 164.77 26.5629 165.413 28.0017C165.565 28.348 166.181 28.6411 166.932 29.0585C167.304 29.3 167.616 29.6235 167.842 30.0039C168.068 30.3844 168.203 30.8114 168.236 31.2521C168.754 33.8098 167.718 36.0745 164.806 36.2521C162.376 36.4031 160.178 34.8578 159.356 30.6926C158.936 28.5612 157.685 27.0336 156.184 26.7139C153.504 26.1455 150.878 27.3977 149.984 31.2255C148.992 35.5239 146.956 36.2255 142.899 35.9768C137.177 35.6826 131.441 35.7627 125.728 36.2166C125.094 36.2166 122.682 37.2201 122.271 35.8525C122.021 35.0354 121.878 37.3356 123.468 37.6287" fill="white"/>
<path fill-rule="evenodd" clip-rule="evenodd" d="M108.888 31.6162C107.941 32.4421 107.029 35.0176 109.013 35.5061C109.374 35.6127 109.755 35.6401 110.128 35.5865C110.501 35.5328 110.858 35.3993 111.175 35.1952C111.764 34.9022 112.586 33.419 112.309 32.753C112.213 32.4138 112.034 32.1033 111.789 31.8483C111.545 31.5932 111.241 31.4014 110.905 31.2894C110.569 31.1774 110.21 31.1486 109.86 31.2056C109.51 31.2625 109.179 31.4035 108.897 31.6162H108.888ZM108.003 31.0478C106.86 32.1846 106.082 35.737 108.897 36.3764C109.384 36.5286 109.901 36.5693 110.406 36.4955C110.912 36.4217 111.395 36.2353 111.818 35.9501C112.577 35.5505 113.435 33.5434 112.917 32.5842C111.577 30.1153 109.084 29.991 108.012 31.0833L108.003 31.0478Z" fill="white"/>
<path fill-rule="evenodd" clip-rule="evenodd" d="M121.592 34.6357C121.616 34.0398 121.682 33.4463 121.788 32.8595C121.905 32.2581 122.06 31.6648 122.253 31.0833C122.561 30.1371 122.938 29.2141 123.379 28.3213C123.831 27.4019 124.341 26.512 124.906 25.657C125.286 25.0405 125.746 24.4762 126.273 23.9785C126.588 23.6647 127.008 23.4753 127.453 23.4456C127.935 23.4456 128.194 23.7121 128.239 24.2627C128.225 25.1437 128.056 26.0154 127.738 26.8382C127.2 28.5451 126.418 30.1662 125.416 31.6517C124.637 32.8838 123.601 33.9348 122.378 34.7334C122.315 35.2351 122.364 35.7445 122.521 36.2254C122.585 36.3547 122.679 36.4667 122.795 36.5518C122.912 36.6368 123.048 36.6925 123.191 36.7138C124.138 36.998 127.095 36.8115 127.819 36.8115C127.845 36.8091 127.87 36.8146 127.893 36.8274C127.915 36.8401 127.933 36.8594 127.944 36.8826C127.944 36.9359 128.024 37.0424 127.944 37.0691C126.452 37.1757 123.915 37.0069 123.057 37.0069C122.854 37.018 122.652 36.9792 122.468 36.894C122.284 36.8088 122.125 36.6798 122.003 36.5185C121.722 36.068 121.577 35.5474 121.583 35.0176H121.386H121.065C120.835 35.0331 120.606 34.9739 120.413 34.8488C120.346 34.8085 120.296 34.7468 120.27 34.6741C120.244 34.6014 120.244 34.522 120.27 34.4492C120.287 34.3953 120.321 34.3484 120.368 34.316C120.413 34.2782 120.47 34.2563 120.529 34.2538C120.582 34.2538 120.645 34.316 120.734 34.4492C120.786 34.517 120.854 34.5705 120.932 34.6047C121.01 34.6389 121.096 34.6526 121.181 34.6446H121.422L121.592 34.6357ZM122.396 34.3604C123.424 33.6773 124.278 32.765 124.889 31.6961C125.771 30.3131 126.465 28.8199 126.952 27.2556C127.211 26.5278 127.391 25.7745 127.488 25.0087C127.488 24.4936 127.435 24.2272 127.193 24.2272C126.952 24.2272 126.193 24.9998 125.291 26.5451C124.349 28.1819 123.588 29.9148 123.021 31.7138C122.843 32.2733 122.709 32.7618 122.601 33.1792C122.507 33.5621 122.439 33.9508 122.396 34.3426V34.3604ZM116.142 34.6357C116.167 34.0399 116.233 33.4464 116.339 32.8595C116.455 32.2581 116.61 31.6648 116.803 31.0833C117.111 30.1281 117.487 29.1962 117.929 28.2947C118.381 27.3753 118.891 26.4854 119.457 25.6304C119.83 25.0248 120.281 24.4696 120.797 23.9785C121.11 23.6666 121.525 23.4774 121.967 23.4456C122.45 23.4456 122.709 23.7121 122.753 24.2627C122.739 25.1436 122.57 26.0153 122.253 26.8382C121.715 28.5451 120.933 30.1662 119.93 31.6517C119.152 32.8836 118.116 33.9346 116.893 34.7334C116.83 35.2351 116.878 35.7445 117.036 36.2254C117.095 36.365 117.196 36.4829 117.326 36.5625C117.456 36.6421 117.607 36.6795 117.759 36.6694C117.928 36.6796 118.096 36.6503 118.252 36.584C118.407 36.5177 118.544 36.4162 118.653 36.2876C118.867 36.03 119.001 35.9057 119.046 35.9057C119.071 35.9032 119.097 35.9088 119.12 35.9215C119.142 35.9342 119.16 35.9535 119.171 35.9767C119.195 36.0365 119.195 36.1034 119.171 36.1632C119.053 36.4239 118.843 36.6326 118.581 36.7494C118.277 36.9255 117.932 37.0204 117.58 37.0247C117.378 37.0358 117.176 36.997 116.992 36.9118C116.808 36.8266 116.648 36.6976 116.526 36.5362C116.245 36.0859 116.1 35.5652 116.106 35.0353H115.91H115.588C115.358 35.0509 115.129 34.9917 114.936 34.8666C114.87 34.8263 114.82 34.7646 114.794 34.6919C114.767 34.6192 114.767 34.5398 114.793 34.4669C114.81 34.413 114.845 34.3662 114.891 34.3337C114.936 34.2954 114.993 34.2734 115.052 34.2716C115.106 34.2716 115.168 34.3337 115.258 34.4669C115.309 34.5354 115.377 34.5894 115.455 34.6237C115.533 34.6579 115.619 34.6713 115.704 34.6623H115.946L116.142 34.6357ZM116.946 34.3604C117.974 33.6773 118.828 32.765 119.439 31.6961C120.321 30.3132 121.015 28.82 121.503 27.2556C121.761 26.5277 121.941 25.7745 122.039 25.0087C122.039 24.4936 121.985 24.2272 121.744 24.2272C121.503 24.2272 120.743 24.9998 119.841 26.5451C118.9 28.1819 118.139 29.9148 117.572 31.7138C117.393 32.2704 117.256 32.7588 117.161 33.1792C117.052 33.5611 116.968 33.9498 116.91 34.3426L116.946 34.3604ZM98.0597 32.3888L97.8095 33.1348L97.5326 33.9696C97.3807 34.4403 97.2556 34.8577 97.1573 35.2307C97.0591 35.6037 96.9787 35.9501 96.9161 36.2787C96.9208 36.3526 96.9208 36.4268 96.9161 36.5007C96.9251 36.5476 96.9251 36.5958 96.9161 36.6428C96.8901 36.7212 96.847 36.7929 96.7899 36.8528C96.7327 36.9127 96.663 36.9592 96.5856 36.9892C96.3633 37.0734 96.1264 37.1126 95.8887 37.1046C95.7052 37.095 95.5324 37.0155 95.4063 36.8826C95.2455 36.7316 95.174 36.6073 95.2097 36.5096C95.2268 36.4635 95.2478 36.419 95.2723 36.3764C95.3105 36.3203 95.3433 36.2608 95.3705 36.1987L95.8887 34.6002C96.4128 32.9661 97.0084 31.3764 97.6755 29.8311C98.3426 28.2858 99.0603 26.8056 99.8286 25.3906C99.8286 25.3106 99.8286 25.2396 99.8286 25.1952C99.8252 25.1568 99.8252 25.1181 99.8286 25.0797C99.8766 24.9424 99.9714 24.8262 100.097 24.7511C100.226 24.665 100.378 24.6187 100.534 24.6179C100.739 24.6171 100.938 24.686 101.097 24.8133C101.258 24.9465 101.312 25.0709 101.276 25.1952C101.228 25.3104 101.147 25.4092 101.044 25.4794C100.566 26.2612 100.148 27.0776 99.7929 27.9217C99.3224 28.9874 98.8101 30.2751 98.2562 31.7849C98.4531 31.6241 98.6622 31.4786 98.8816 31.3497C98.993 31.2848 99.1189 31.2482 99.2479 31.2431C99.2991 31.2402 99.3502 31.251 99.3958 31.2744C99.4414 31.2979 99.4798 31.3331 99.507 31.3764C99.5613 31.4833 99.577 31.6056 99.5517 31.7227C99.6063 32.0185 99.7685 32.2841 100.007 32.4687C100.27 32.6465 100.583 32.7366 100.901 32.7263C101.895 32.6844 102.843 32.298 103.581 31.6339C104.441 30.9641 105.082 30.0553 105.421 29.0229C105.677 28.4068 105.749 27.7301 105.627 27.0746C105.505 26.419 105.194 25.8126 104.733 25.3284C104.147 24.8027 103.458 24.4021 102.71 24.1516C101.962 23.9011 101.169 23.8059 100.383 23.8719C98.4365 23.8373 96.5111 24.2731 94.772 25.1419C94.0779 25.4344 93.4494 25.8615 92.9232 26.3983C92.397 26.935 91.9838 27.5707 91.7076 28.268C91.5641 28.6027 91.5158 28.9701 91.5677 29.3303C91.6197 29.6904 91.7701 30.0295 92.0024 30.3106C92.2955 30.5945 92.6468 30.8121 93.0323 30.9485C93.4178 31.0849 93.8283 31.137 94.2359 31.101C94.4854 31.1025 94.7341 31.0757 94.9774 31.0211C95.1957 30.9734 95.4062 30.8957 95.6028 30.7902C95.6493 30.7247 95.7067 30.6677 95.7726 30.6215C95.8193 30.6086 95.8688 30.6086 95.9155 30.6215C95.9691 30.6215 96.0138 30.6215 96.0227 30.6215C96.0321 30.6377 96.0371 30.6561 96.0371 30.6748C96.0371 30.6935 96.0321 30.7118 96.0227 30.728C95.9602 30.9501 95.71 31.1455 95.2991 31.3142C94.8624 31.4907 94.3946 31.5783 93.9232 31.5717C93.4857 31.608 93.0456 31.5426 92.6378 31.3808C92.2301 31.219 91.8657 30.9651 91.5736 30.6392C91.3233 30.3042 91.1652 29.9101 91.1151 29.4958C91.065 29.0815 91.1245 28.6613 91.2877 28.2769C91.5621 27.4831 92.0213 26.7649 92.6278 26.181C93.3637 25.4593 94.2113 24.8596 95.1383 24.4048C96.1011 23.9215 97.1176 23.5519 98.1669 23.3035C99.1987 23.0487 100.257 22.9175 101.321 22.9128C102.173 22.8511 103.03 22.9608 103.838 23.2355C104.647 23.5102 105.392 23.9441 106.029 24.5113C106.545 24.9934 106.906 25.6172 107.065 26.3035C107.224 26.9898 107.174 27.7076 106.922 28.3657C106.677 29.0709 106.288 29.7181 105.779 30.2662C105.162 30.9491 104.456 31.5465 103.679 32.0424C103.164 32.3946 102.613 32.6922 102.035 32.9305C101.605 33.11 101.144 33.2094 100.677 33.2236H100.302H100.079C100.304 34.05 100.734 34.8071 101.33 35.4261C101.547 35.6741 101.813 35.8759 102.11 36.0194C102.408 36.1628 102.732 36.245 103.063 36.2609C103.369 36.2716 103.673 36.2171 103.956 36.1011C104.055 36.0691 104.145 36.0171 104.222 35.9482C104.299 35.8794 104.361 35.7953 104.403 35.7014C104.429 35.6106 104.478 35.528 104.546 35.4616C104.575 35.4329 104.61 35.4102 104.649 35.395C104.687 35.3798 104.728 35.3722 104.769 35.3728C104.8 35.3707 104.83 35.376 104.858 35.3884C104.886 35.4008 104.911 35.4198 104.93 35.4439C104.943 35.4684 104.95 35.4959 104.95 35.5238C104.95 35.5517 104.943 35.5791 104.93 35.6037C104.741 35.978 104.424 36.2737 104.037 36.4385C103.544 36.7083 102.991 36.8518 102.428 36.8559C101.944 36.8495 101.467 36.7455 101.025 36.5501C100.582 36.3547 100.184 36.072 99.8554 35.7192C98.9855 34.7653 98.3603 33.6167 98.0329 32.371L98.0597 32.3888ZM88.9917 32.6819L87.8213 32.7352H86.9279C86.7133 32.7494 86.4979 32.7222 86.2936 32.6552C86.2667 32.6475 86.2418 32.6341 86.2205 32.616C86.1992 32.5979 86.1821 32.5754 86.1703 32.5502C86.1584 32.525 86.1521 32.4975 86.1518 32.4697C86.1515 32.4418 86.1572 32.4143 86.1685 32.3888C86.1862 32.3231 86.2133 32.2603 86.2489 32.2023C86.2581 32.1859 86.2709 32.1718 86.2864 32.161C86.3019 32.1503 86.3196 32.1431 86.3383 32.1401H86.4276C86.8465 32.127 87.2642 32.0885 87.6784 32.0247C88.0938 31.9814 88.5115 31.9636 88.9291 31.9714C89.1655 31.9498 89.4034 31.9928 89.617 32.0957C89.6766 32.1414 89.7182 32.2064 89.7345 32.2795C89.7508 32.3525 89.7409 32.4289 89.7064 32.4954C89.6792 32.5975 89.6234 32.6899 89.5456 32.7618C89.4759 32.8207 89.3869 32.8523 89.2954 32.8506C89.2426 32.8638 89.1874 32.8638 89.1346 32.8506C89.0647 32.7991 89.0043 32.736 88.9559 32.6641L88.9917 32.6819ZM82.9076 29.1295C82.3565 30.0449 81.8641 30.9941 81.4335 31.9714C80.9694 33.015 80.5608 34.0822 80.2095 35.1685C80.1871 35.262 80.1871 35.3593 80.2095 35.4527C80.2095 35.5238 80.2631 35.5504 80.3167 35.5504C80.3703 35.5504 80.549 35.2396 80.8349 34.6179C81.1208 33.9963 81.3888 33.4367 81.639 32.9483C82.12 31.9647 82.688 31.0255 83.3364 30.1419C83.7831 29.5735 84.2298 29.2538 84.5336 29.2538C84.8374 29.2538 85.0607 29.4403 85.0786 29.8044C85.0137 30.574 84.8392 31.3305 84.5604 32.0513L84.1137 33.4456C83.9178 34.0257 83.7655 34.6194 83.6581 35.2218C83.5955 35.6304 83.6581 35.8257 83.7653 35.8257H83.9082C83.9644 35.8168 84.0217 35.8168 84.078 35.8257C84.0923 35.8242 84.1069 35.8265 84.12 35.8325C84.1332 35.8385 84.1444 35.8479 84.1527 35.8597C84.1609 35.8715 84.1658 35.8853 84.1668 35.8997C84.1678 35.914 84.1649 35.9284 84.1584 35.9412C84.1425 35.9779 84.1193 36.0111 84.0901 36.0386C84.0609 36.0661 84.0264 36.0873 83.9886 36.1011C83.8909 36.1474 83.7842 36.1717 83.6759 36.1721C83.4724 36.1773 83.2746 36.1046 83.1233 35.9691C82.9721 35.8336 82.8789 35.6456 82.8629 35.4439C82.7523 34.7437 82.8294 34.0269 83.0863 33.3657L83.399 32.4776C83.5687 31.9891 83.7206 31.5895 83.8457 31.1632C83.957 30.8501 84.032 30.5253 84.069 30.1952C84.069 30.0442 84.0154 29.9643 83.8814 29.9643C83.7474 29.9643 83.4168 30.3018 82.988 30.9767C82.4557 31.8341 81.9783 32.7239 81.5586 33.641C81.4067 33.9696 81.2101 34.3959 80.9779 34.9376C80.4895 36.0566 80.0398 36.6191 79.6288 36.625C79.5129 36.6403 79.3956 36.6098 79.3021 36.5401C79.2085 36.4703 79.1462 36.3669 79.1285 36.252C79.1027 35.8399 79.1698 35.4272 79.3251 35.0442C79.7031 33.9138 80.1506 32.8075 80.6652 31.7316C81.2608 30.4705 81.5943 29.7156 81.6658 29.4669C81.6658 29.4669 81.6658 29.387 81.6658 29.3071C81.6658 29.2272 81.6658 29.1295 81.7194 29.014L81.8087 28.863C81.8968 28.8151 81.9896 28.7764 82.0857 28.7476C82.1746 28.7351 82.2648 28.7351 82.3537 28.7476C82.5084 28.728 82.6652 28.7591 82.8004 28.8364C82.8987 28.8453 82.9165 28.9696 82.8719 29.1472L82.9076 29.1295ZM77.9492 32.6819L76.7789 32.7352H75.8855C75.6708 32.7494 75.4555 32.7222 75.2512 32.6552C75.2243 32.6475 75.1993 32.6341 75.1781 32.616C75.1568 32.5979 75.1397 32.5754 75.1278 32.5502C75.116 32.525 75.1097 32.4975 75.1094 32.4697C75.1091 32.4418 75.1148 32.4143 75.1261 32.3888C75.1434 32.323 75.1705 32.2601 75.2065 32.2023C75.2157 32.1859 75.2285 32.1718 75.244 32.161C75.2595 32.1503 75.2772 32.1431 75.2958 32.1401H75.3852C75.8041 32.127 76.2218 32.0885 76.6359 32.0247C77.0514 31.9814 77.4691 31.9636 77.8867 31.9714C78.1231 31.9498 78.361 31.9928 78.5746 32.0957C78.6342 32.1414 78.6757 32.2064 78.6921 32.2795C78.7084 32.3525 78.6984 32.4289 78.664 32.4954C78.6367 32.5975 78.581 32.6899 78.5031 32.7618C78.4334 32.8207 78.3445 32.8523 78.253 32.8506C78.2002 32.8638 78.145 32.8638 78.0922 32.8506C78.0259 32.7978 77.9686 32.7349 77.9224 32.6641L77.9492 32.6819ZM70.0069 34.1028C69.9064 32.6114 70.039 31.1134 70.4 29.6623L70.4804 29.2449C70.4607 29.218 70.4456 29.188 70.4357 29.1561C70.4308 29.1357 70.4308 29.1144 70.4357 29.0939C70.4605 29.0352 70.4971 28.9821 70.5432 28.9378C70.5892 28.8936 70.6439 28.8591 70.7037 28.8364C70.8569 28.7633 71.0252 28.7268 71.1951 28.7298C71.3862 28.7163 71.575 28.7768 71.7222 28.8986C71.7806 28.9471 71.8223 29.0126 71.8415 29.0858C71.8607 29.159 71.8565 29.2364 71.8294 29.3071C71.8329 29.3277 71.8329 29.3487 71.8294 29.3693L71.7222 29.4581L71.5793 29.7689C71.5386 29.8526 71.5028 29.9386 71.4721 30.0264C71.3225 30.5012 71.2178 30.9888 71.1594 31.4829C71.093 32.016 71.0721 32.5538 71.0968 33.0904C71.9078 32.3109 72.6772 31.4898 73.4018 30.6304C73.9405 30.07 74.3867 29.4286 74.7241 28.7298V28.6321C74.7598 28.5042 74.8239 28.3858 74.9117 28.2858C74.9433 28.2506 74.9818 28.2222 75.0248 28.2024C75.0678 28.1825 75.1144 28.1716 75.1618 28.1703C75.215 28.1641 75.2689 28.1724 75.3177 28.1943C75.3664 28.2162 75.4083 28.2509 75.4388 28.2947C75.4624 28.3478 75.4746 28.4053 75.4746 28.4634C75.4746 28.5215 75.4624 28.579 75.4388 28.6321C75.1172 29.2123 74.7073 29.7395 74.2237 30.1952C73.509 30.9886 72.4578 32.0543 71.07 33.3923C71.0804 34.0002 71.1983 34.6014 71.4185 35.1685C71.471 35.3301 71.5718 35.4719 71.7075 35.5751C71.8432 35.6782 72.0072 35.7378 72.1779 35.7458C72.2777 35.7504 72.3769 35.728 72.4649 35.6811C72.553 35.6342 72.6267 35.5645 72.6782 35.4794C72.7943 35.3018 72.8836 35.213 72.9462 35.213C72.9708 35.2109 72.9955 35.2156 73.0175 35.2265C73.0396 35.2375 73.0582 35.2543 73.0713 35.2751C73.0813 35.299 73.0865 35.3247 73.0865 35.3506C73.0865 35.3765 73.0813 35.4022 73.0713 35.4261C73.0105 35.6057 72.8826 35.7552 72.7139 35.8435C72.5116 35.954 72.2835 36.0092 72.0528 36.0034C71.6181 36.0194 71.1924 35.8773 70.8556 35.6037C70.497 35.2786 70.237 34.8602 70.1052 34.3959C69.787 34.7213 69.4887 35.0653 69.2118 35.4261C68.953 35.7295 68.7283 36.06 68.5417 36.4119C68.4792 36.5813 68.4015 36.7448 68.3094 36.9003C68.2771 36.9398 68.2362 36.9715 68.1898 36.993C68.1433 37.0146 68.0926 37.0254 68.0414 37.0247C67.961 37.0247 67.9074 37.0247 67.8895 36.9536C67.8636 36.8819 67.8636 36.8034 67.8895 36.7316C68.0508 36.3689 68.2678 36.0334 68.5328 35.7369C68.8991 35.3106 69.3904 34.76 70.0069 34.1028ZM64.1105 33.57L63.9407 34.1028C63.7041 34.6639 63.6418 35.2825 63.762 35.879C63.8258 36.0612 63.9474 36.2178 64.1086 36.3251C64.2698 36.4325 64.4617 36.4848 64.6554 36.4741C65.123 36.4697 65.5758 36.3103 65.9419 36.0211C66.3429 35.6941 66.6509 35.2685 66.8353 34.7867C66.8395 34.7602 66.8395 34.7332 66.8353 34.7067C66.8316 34.6624 66.8316 34.6178 66.8353 34.5735C66.8545 34.4966 66.8984 34.428 66.9604 34.3781C67.0206 34.3364 67.0925 34.3147 67.1659 34.316C67.2047 34.3109 67.2442 34.3176 67.2792 34.335C67.3142 34.3524 67.3432 34.3798 67.3624 34.4137C67.3801 34.4559 67.3892 34.5011 67.3892 34.5469C67.3892 34.5926 67.3801 34.6379 67.3624 34.6801C67.1424 35.2668 66.7463 35.7721 66.2278 36.1277C65.7254 36.5447 65.0954 36.7796 64.441 36.7938C64.0983 36.815 63.7582 36.7228 63.4737 36.5316C63.1893 36.3404 62.9765 36.061 62.8686 35.7369C62.6043 34.8612 62.6453 33.9224 62.9848 33.0726C63.2858 32.1771 63.7226 31.3326 64.2802 30.5682C64.7965 29.8106 65.4367 29.1442 66.1742 28.5966L66.5584 28.49C66.702 28.4407 66.8531 28.4166 67.0051 28.419C67.123 28.4184 67.2394 28.4458 67.3446 28.4989C67.4857 28.579 67.6175 28.6743 67.7377 28.7831C67.9222 28.8063 68.097 28.8788 68.2433 28.993C68.3896 29.1072 68.502 29.2587 68.5685 29.4314C68.6994 29.8854 68.6743 30.3698 68.497 30.808C68.2107 31.651 67.6942 32.3982 67.0051 32.9661C66.4606 33.5098 65.7377 33.8407 64.9681 33.8986C64.7954 33.9057 64.6229 33.8816 64.4589 33.8275C64.3264 33.7702 64.2099 33.6818 64.1194 33.57H64.1105ZM64.3963 32.8151C64.4678 32.8151 64.5303 32.9394 64.584 33.1881C64.6376 33.4367 64.843 33.5522 65.2183 33.5522C65.5146 33.531 65.8033 33.449 66.0662 33.3114C66.3292 33.1739 66.5606 32.9837 66.746 32.7529C67.2772 32.182 67.6712 31.4988 67.8985 30.7547C68.0492 30.3828 68.0864 29.9752 68.0057 29.5824C67.9759 29.4524 67.8998 29.3376 67.7914 29.2592C67.6829 29.1808 67.5496 29.1442 67.416 29.1561C66.9961 29.1561 66.5226 29.4847 65.9955 30.1241C65.3475 30.9645 64.8101 31.8837 64.3963 32.8595V32.8151ZM58.3391 34.6357C58.3635 34.0398 58.4291 33.4464 58.5356 32.8595C58.9544 30.9671 59.7603 29.1805 60.9031 27.6108H60.8495L60.6887 27.5309C60.3582 27.5309 59.9919 27.4687 59.5809 27.451C58.4642 27.451 58.5446 27.451 57.4367 27.5042C56.999 28.5433 56.5433 29.7778 55.918 31.3764C55.7303 31.8648 55.641 32.1401 55.507 32.5309L55.1943 33.419C55.0246 33.943 54.8906 34.4048 54.7833 34.8222C54.6761 35.2396 54.5868 35.6215 54.5153 35.9856C54.5205 36.0654 54.5205 36.1455 54.5153 36.2254C54.5253 36.2782 54.5253 36.3324 54.5153 36.3852C54.4868 36.4731 54.4391 36.5536 54.3759 36.6211C54.3126 36.6886 54.2351 36.7415 54.149 36.776C53.901 36.8691 53.6366 36.9114 53.3718 36.9003C53.1678 36.8882 52.9761 36.7993 52.8357 36.6517C52.657 36.4859 52.5856 36.3468 52.6213 36.2343C52.6414 36.1851 52.6653 36.1376 52.6928 36.0922C52.7341 36.0302 52.77 35.9648 52.8 35.8968L53.3718 34.1206C53.9674 32.3029 54.6285 30.5267 55.3551 28.792C55.5398 28.3539 55.7303 27.9216 55.9269 27.4954C55.4623 27.4954 55.641 27.4954 55.239 27.4954C54.9351 27.4901 54.6326 27.5382 54.3456 27.6375L54.1937 27.7351H54.1133C54.0398 27.7395 53.9664 27.7246 53.9006 27.6918C53.8347 27.6591 53.7787 27.6097 53.7381 27.5486C53.6807 27.4265 53.6595 27.2907 53.6769 27.157C53.6943 27.0234 53.7496 26.8974 53.8363 26.7938C53.8642 26.7653 53.8975 26.7427 53.9344 26.7275C53.9712 26.7122 54.0108 26.7046 54.0508 26.705H54.1401H54.2026C54.5332 26.705 54.3992 26.705 56.1413 26.5185H56.4093C56.8501 25.5948 57.3117 24.7067 57.7941 23.8542C57.7941 23.7653 57.7941 23.6854 57.7941 23.641C57.7903 23.5967 57.7903 23.5521 57.7941 23.5078C57.8463 23.3558 57.9507 23.2269 58.0889 23.1437C58.2525 23.0751 58.4329 23.0566 58.6071 23.0904C58.8344 23.0852 59.0562 23.1608 59.2325 23.3035C59.4112 23.4456 59.4737 23.5877 59.429 23.7298C59.3747 23.8562 59.2847 23.9641 59.1699 24.0407C58.6849 24.8259 58.2579 25.6451 57.8924 26.4918C58.2167 26.4358 58.5466 26.4179 58.8751 26.4385H60.9389H61.055H61.2248C61.332 26.4385 61.4124 26.5185 61.4749 26.6872C61.498 26.7502 61.513 26.8158 61.5196 26.8826C61.7953 26.5653 62.0938 26.2685 62.413 25.9945C62.7281 25.6807 63.1472 25.4913 63.5923 25.4616C64.0747 25.4616 64.3338 25.728 64.3785 26.2787C64.3645 27.1596 64.1952 28.0314 63.8782 28.8542C62.9235 31.2582 61.2646 33.3218 59.1163 34.7778C59.053 35.2795 59.1018 35.789 59.2593 36.2698C59.3184 36.4094 59.4199 36.5273 59.5497 36.6069C59.6794 36.6865 59.8308 36.7239 59.9829 36.7138C60.1515 36.724 60.3201 36.6947 60.4753 36.6284C60.6304 36.5621 60.7678 36.4606 60.8763 36.332C61.0908 36.0744 61.2248 35.9501 61.2694 35.9501C61.2951 35.9477 61.3209 35.9532 61.3433 35.9659C61.3657 35.9786 61.3836 35.9979 61.3945 36.0211C61.4189 36.0809 61.4189 36.1478 61.3945 36.2076C61.277 36.4683 61.0671 36.677 60.8049 36.7938C60.501 36.9703 60.1562 37.0652 59.8043 37.0691C59.6017 37.0802 59.3995 37.0414 59.2156 36.9562C59.0317 36.871 58.8718 36.742 58.75 36.5806C58.4686 36.1305 58.3228 35.6097 58.3301 35.0797H58.1336H57.812C57.5819 35.0953 57.353 35.0361 57.1598 34.911C57.0936 34.8707 57.0433 34.809 57.0173 34.7363C56.9913 34.6636 56.9911 34.5842 57.0168 34.5114C57.034 34.4574 57.0685 34.4106 57.1151 34.3781C57.1604 34.3404 57.2169 34.3185 57.2759 34.316C57.3295 34.316 57.3921 34.3781 57.4814 34.5114C57.5329 34.5791 57.601 34.6327 57.6792 34.6669C57.7574 34.7011 57.8431 34.7148 57.9281 34.7067H58.1693L58.3391 34.6357ZM59.1342 34.3604C60.9365 33.0927 62.315 31.317 63.092 29.2627C63.3507 28.5348 63.5304 27.7816 63.628 27.0158C63.628 26.5007 63.5744 26.2343 63.3332 26.2343C61.9752 26.2343 59.5988 32.0868 59.3397 33.2147C59.2498 33.5861 59.1842 33.9628 59.1431 34.3426L59.1342 34.3604ZM64.986 22.6463C65.2093 22.9483 63.896 23.8186 63.3957 23.419C62.1271 22.4243 60.5279 22.3 58.4374 22.3C56.2685 22.2606 54.1225 22.7452 52.1835 23.7121C51.4102 24.0373 50.71 24.5128 50.124 25.1106C49.5379 25.7084 49.0779 26.4165 48.7708 27.1934C48.6184 27.5668 48.572 27.9745 48.6366 28.3722C48.7012 28.7699 48.8743 29.1424 49.137 29.4492C49.4619 29.7668 49.8522 30.0106 50.2809 30.1639C50.7097 30.3173 51.1668 30.3764 51.6207 30.3373C51.8972 30.3388 52.1729 30.309 52.4426 30.2485C52.6858 30.1952 52.9204 30.1085 53.1395 29.9909C53.1908 29.9185 53.2543 29.8554 53.3271 29.8044C53.3755 29.775 53.4312 29.7596 53.4879 29.76C53.5504 29.76 53.5951 29.76 53.613 29.76C53.6232 29.7776 53.6285 29.7975 53.6285 29.8177C53.6285 29.838 53.6232 29.8579 53.613 29.8755C53.5415 30.1153 53.2646 30.3373 52.8089 30.5327C52.3246 30.731 51.8051 30.8307 51.2812 30.8257C50.7937 30.8662 50.3034 30.7934 49.8491 30.6131C49.3948 30.4327 48.9889 30.1498 48.6635 29.7867C48.3776 29.4106 48.1972 28.9658 48.1407 28.4977C48.0842 28.0296 48.1536 27.555 48.3419 27.1224C48.6545 26.2667 49.1621 25.4946 49.825 24.8666C50.6426 24.0685 51.5837 23.4058 52.6124 22.9039C53.683 22.3659 54.8135 21.9546 55.9805 21.6783C57.1292 21.3943 58.3079 21.2482 59.4916 21.2431C61.7876 21.2254 63.8156 21.4474 64.9949 22.6286L64.986 22.6463Z" fill="white"/>
<path d="M121.592 34.6357C121.616 34.0398 121.682 33.4463 121.788 32.8595C121.905 32.2581 122.06 31.6648 122.253 31.0833C122.561 30.1371 122.938 29.2141 123.379 28.3213C123.831 27.4019 124.341 26.512 124.906 25.657C125.286 25.0405 125.746 24.4762 126.273 23.9785C126.588 23.6647 127.008 23.4753 127.453 23.4456C127.935 23.4456 128.194 23.7121 128.239 24.2627C128.225 25.1437 128.056 26.0154 127.738 26.8382C127.2 28.5451 126.418 30.1662 125.416 31.6517C124.637 32.8838 123.601 33.9348 122.378 34.7334C122.315 35.2351 122.364 35.7445 122.521 36.2254C122.585 36.3547 122.679 36.4667 122.795 36.5518C122.912 36.6368 123.048 36.6925 123.191 36.7138C124.138 36.998 127.095 36.8115 127.819 36.8115C127.845 36.8091 127.87 36.8146 127.893 36.8274C127.915 36.8401 127.933 36.8594 127.944 36.8826C127.944 36.9359 128.024 37.0424 127.944 37.0691C126.452 37.1757 123.915 37.0069 123.057 37.0069C122.854 37.018 122.652 36.9792 122.468 36.894C122.284 36.8088 122.125 36.6798 122.003 36.5185C121.722 36.068 121.577 35.5474 121.583 35.0176H121.386H121.065C120.835 35.0331 120.606 34.9739 120.413 34.8488C120.346 34.8085 120.296 34.7468 120.27 34.6741C120.244 34.6014 120.244 34.522 120.27 34.4492C120.287 34.3953 120.321 34.3484 120.368 34.316C120.413 34.2782 120.47 34.2563 120.529 34.2538C120.582 34.2538 120.645 34.316 120.734 34.4492C120.786 34.517 120.854 34.5705 120.932 34.6047C121.01 34.6389 121.096 34.6526 121.181 34.6446H121.422L121.592 34.6357ZM122.396 34.3604C123.424 33.6773 124.278 32.765 124.889 31.6961C125.771 30.3131 126.465 28.8199 126.952 27.2556C127.211 26.5278 127.391 25.7745 127.488 25.0087C127.488 24.4936 127.435 24.2272 127.193 24.2272C126.952 24.2272 126.193 24.9998 125.291 26.5451C124.349 28.1819 123.588 29.9148 123.021 31.7138C122.843 32.2733 122.709 32.7618 122.601 33.1792C122.507 33.5621 122.439 33.9508 122.396 34.3426V34.3604ZM116.142 34.6357C116.167 34.0399 116.233 33.4464 116.339 32.8595C116.455 32.2581 116.61 31.6648 116.803 31.0833C117.111 30.1281 117.487 29.1962 117.929 28.2947C118.381 27.3753 118.891 26.4854 119.457 25.6304C119.83 25.0248 120.281 24.4696 120.797 23.9785C121.11 23.6666 121.525 23.4774 121.967 23.4456C122.45 23.4456 122.709 23.7121 122.753 24.2627C122.739 25.1436 122.57 26.0153 122.253 26.8382C121.715 28.5451 120.933 30.1662 119.93 31.6517C119.152 32.8836 118.116 33.9346 116.893 34.7334C116.83 35.2351 116.878 35.7445 117.036 36.2254C117.095 36.365 117.196 36.4829 117.326 36.5625C117.456 36.6421 117.607 36.6795 117.759 36.6694C117.928 36.6796 118.096 36.6503 118.252 36.584C118.407 36.5177 118.544 36.4162 118.653 36.2876C118.867 36.03 119.001 35.9057 119.046 35.9057C119.071 35.9032 119.097 35.9088 119.12 35.9215C119.142 35.9342 119.16 35.9535 119.171 35.9767C119.195 36.0365 119.195 36.1034 119.171 36.1632C119.053 36.4239 118.843 36.6326 118.581 36.7494C118.277 36.9255 117.932 37.0204 117.58 37.0247C117.378 37.0358 117.176 36.997 116.992 36.9118C116.808 36.8266 116.648 36.6976 116.526 36.5362C116.245 36.0859 116.1 35.5652 116.106 35.0353H115.91H115.588C115.358 35.0509 115.129 34.9917 114.936 34.8666C114.87 34.8263 114.82 34.7646 114.793 34.6919C114.767 34.6192 114.767 34.5398 114.793 34.4669C114.81 34.413 114.845 34.3662 114.891 34.3337C114.936 34.2954 114.993 34.2734 115.052 34.2716C115.106 34.2716 115.168 34.3337 115.258 34.4669C115.309 34.5354 115.377 34.5894 115.455 34.6237C115.533 34.6579 115.619 34.6713 115.704 34.6623H115.946L116.142 34.6357ZM116.946 34.3604C117.974 33.6773 118.828 32.765 119.439 31.6961C120.321 30.3132 121.015 28.82 121.503 27.2556C121.761 26.5277 121.941 25.7745 122.039 25.0087C122.039 24.4936 121.985 24.2272 121.744 24.2272C121.503 24.2272 120.743 24.9998 119.841 26.5451C118.9 28.1819 118.139 29.9148 117.572 31.7138C117.393 32.2704 117.256 32.7588 117.161 33.1792C117.052 33.5611 116.968 33.9498 116.91 34.3426L116.946 34.3604ZM98.0597 32.3888L97.8095 33.1348L97.5326 33.9696C97.3807 34.4403 97.2556 34.8577 97.1573 35.2307C97.0591 35.6037 96.9787 35.9501 96.9161 36.2787C96.9208 36.3526 96.9208 36.4268 96.9161 36.5007C96.9251 36.5476 96.9251 36.5958 96.9161 36.6428C96.8901 36.7212 96.847 36.7929 96.7899 36.8528C96.7327 36.9127 96.663 36.9592 96.5856 36.9892C96.3633 37.0734 96.1264 37.1126 95.8887 37.1046C95.7052 37.095 95.5324 37.0155 95.4063 36.8826C95.2455 36.7316 95.174 36.6073 95.2097 36.5096C95.2268 36.4635 95.2478 36.419 95.2723 36.3764C95.3105 36.3203 95.3434 36.2608 95.3705 36.1987L95.8887 34.6002C96.4128 32.9661 97.0084 31.3764 97.6755 29.8311C98.3426 28.2858 99.0603 26.8056 99.8286 25.3906C99.8286 25.3106 99.8286 25.2396 99.8286 25.1952C99.8252 25.1568 99.8252 25.1181 99.8286 25.0797C99.8766 24.9424 99.9714 24.8262 100.097 24.7511C100.226 24.665 100.378 24.6187 100.534 24.6179C100.739 24.6171 100.938 24.686 101.097 24.8133C101.258 24.9465 101.312 25.0709 101.276 25.1952C101.228 25.3104 101.147 25.4092 101.044 25.4794V25.4794C100.566 26.2612 100.148 27.0776 99.7929 27.9217C99.3224 28.9874 98.8101 30.2751 98.2562 31.7849C98.4531 31.6241 98.6622 31.4786 98.8816 31.3497C98.9931 31.2848 99.1189 31.2482 99.2479 31.2431C99.2991 31.2402 99.3502 31.251 99.3958 31.2744C99.4414 31.2979 99.4798 31.3331 99.507 31.3764C99.5613 31.4833 99.577 31.6056 99.5517 31.7227C99.6063 32.0185 99.7685 32.2841 100.007 32.4687C100.27 32.6465 100.583 32.7366 100.901 32.7263C101.895 32.6844 102.843 32.298 103.581 31.6339C104.441 30.9641 105.082 30.0553 105.421 29.0229C105.677 28.4068 105.749 27.7301 105.627 27.0746C105.505 26.419 105.194 25.8126 104.733 25.3284C104.147 24.8027 103.458 24.4021 102.71 24.1516C101.962 23.9011 101.169 23.8059 100.383 23.8719C98.4365 23.8373 96.5111 24.2731 94.772 25.1419C94.0779 25.4344 93.4494 25.8615 92.9232 26.3983C92.3971 26.935 91.9838 27.5707 91.7076 28.268C91.5641 28.6027 91.5158 28.9702 91.5678 29.3303C91.6197 29.6904 91.7701 30.0295 92.0024 30.3106C92.2955 30.5945 92.6468 30.8121 93.0323 30.9485C93.4178 31.0849 93.8283 31.137 94.2359 31.101C94.4854 31.1025 94.7341 31.0757 94.9774 31.0211C95.1957 30.9734 95.4062 30.8957 95.6028 30.7902C95.6493 30.7247 95.7067 30.6677 95.7726 30.6215C95.8193 30.6086 95.8688 30.6086 95.9155 30.6215C95.9691 30.6215 96.0138 30.6215 96.0227 30.6215C96.0321 30.6377 96.0371 30.6561 96.0371 30.6748C96.0371 30.6935 96.0321 30.7118 96.0227 30.728C95.9602 30.9501 95.71 31.1455 95.2991 31.3142C94.8624 31.4907 94.3946 31.5783 93.9232 31.5717C93.4857 31.608 93.0456 31.5426 92.6378 31.3808C92.2301 31.219 91.8657 30.9651 91.5736 30.6392C91.3233 30.3042 91.1652 29.9101 91.1151 29.4958C91.065 29.0815 91.1245 28.6613 91.2877 28.2769C91.5621 27.4831 92.0213 26.7649 92.6278 26.181C93.3637 25.4593 94.2113 24.8596 95.1383 24.4048C96.1011 23.9215 97.1176 23.5519 98.1669 23.3035C99.1987 23.0487 100.257 22.9175 101.321 22.9128C102.173 22.8511 103.03 22.9608 103.838 23.2355C104.647 23.5102 105.392 23.9441 106.029 24.5113C106.545 24.9934 106.906 25.6172 107.065 26.3035C107.224 26.9898 107.174 27.7076 106.922 28.3657C106.677 29.0709 106.288 29.7181 105.779 30.2662C105.162 30.9491 104.456 31.5465 103.679 32.0424C103.164 32.3946 102.613 32.6922 102.035 32.9305C101.605 33.11 101.144 33.2094 100.677 33.2236H100.302H100.079C100.304 34.05 100.734 34.8071 101.33 35.4261C101.547 35.6741 101.813 35.8759 102.11 36.0194C102.408 36.1628 102.732 36.245 103.063 36.2609C103.369 36.2716 103.673 36.2171 103.956 36.1011C104.055 36.0691 104.145 36.0171 104.222 35.9482C104.299 35.8794 104.361 35.7953 104.403 35.7014C104.429 35.6106 104.478 35.528 104.546 35.4616C104.575 35.4329 104.61 35.4102 104.649 35.395C104.687 35.3798 104.728 35.3722 104.769 35.3728C104.8 35.3707 104.83 35.376 104.858 35.3884C104.886 35.4008 104.911 35.4198 104.93 35.4439C104.943 35.4684 104.95 35.4959 104.95 35.5238C104.95 35.5517 104.943 35.5791 104.93 35.6037C104.741 35.978 104.424 36.2737 104.037 36.4385C103.544 36.7083 102.991 36.8518 102.428 36.8559C101.944 36.8495 101.467 36.7455 101.025 36.5501C100.582 36.3547 100.184 36.072 99.8554 35.7192C98.9855 34.7653 98.3603 33.6167 98.0329 32.371L98.0597 32.3888ZM88.9917 32.6819L87.8213 32.7352H86.9279C86.7133 32.7494 86.4979 32.7222 86.2936 32.6552C86.2667 32.6475 86.2418 32.6341 86.2205 32.616C86.1992 32.5979 86.1821 32.5754 86.1703 32.5502C86.1584 32.525 86.1521 32.4975 86.1518 32.4697C86.1515 32.4418 86.1572 32.4143 86.1685 32.3888C86.1862 32.3231 86.2133 32.2603 86.2489 32.2023C86.2581 32.1859 86.2709 32.1718 86.2864 32.161C86.3019 32.1503 86.3196 32.1431 86.3383 32.1401H86.4276C86.8465 32.127 87.2642 32.0885 87.6784 32.0247C88.0938 31.9814 88.5115 31.9636 88.9291 31.9714C89.1655 31.9498 89.4034 31.9928 89.617 32.0957C89.6766 32.1414 89.7182 32.2064 89.7345 32.2795C89.7508 32.3525 89.7409 32.4289 89.7064 32.4954C89.6792 32.5975 89.6234 32.6899 89.5456 32.7618C89.4759 32.8207 89.3869 32.8523 89.2954 32.8506C89.2426 32.8638 89.1874 32.8638 89.1346 32.8506C89.0647 32.7991 89.0043 32.736 88.9559 32.6641L88.9917 32.6819ZM82.9076 29.1295C82.3565 30.0449 81.8641 30.9941 81.4335 31.9714C80.9694 33.015 80.5608 34.0822 80.2095 35.1685C80.1871 35.262 80.1871 35.3593 80.2095 35.4527C80.2095 35.5238 80.2631 35.5504 80.3167 35.5504C80.3703 35.5504 80.549 35.2396 80.8349 34.6179C81.1208 33.9963 81.3888 33.4367 81.639 32.9483C82.12 31.9647 82.688 31.0255 83.3364 30.1419C83.7831 29.5735 84.2298 29.2538 84.5336 29.2538C84.8374 29.2538 85.0607 29.4403 85.0786 29.8044C85.0137 30.574 84.8392 31.3305 84.5604 32.0513L84.1137 33.4456C83.9178 34.0257 83.7655 34.6194 83.6581 35.2218C83.5955 35.6304 83.6581 35.8257 83.7653 35.8257H83.9082C83.9644 35.8168 84.0217 35.8168 84.078 35.8257C84.0923 35.8242 84.1069 35.8265 84.12 35.8325C84.1332 35.8385 84.1444 35.8479 84.1527 35.8597C84.1609 35.8715 84.1658 35.8853 84.1668 35.8997C84.1678 35.914 84.1649 35.9284 84.1584 35.9412C84.1425 35.9779 84.1193 36.0111 84.0901 36.0386C84.0609 36.0661 84.0264 36.0873 83.9886 36.1011C83.8909 36.1474 83.7842 36.1717 83.6759 36.1721C83.4724 36.1773 83.2746 36.1046 83.1233 35.9691C82.9721 35.8336 82.8789 35.6456 82.8629 35.4439C82.7523 34.7437 82.8294 34.0269 83.0863 33.3657L83.399 32.4776C83.5687 31.9891 83.7206 31.5895 83.8457 31.1632C83.957 30.8501 84.032 30.5253 84.069 30.1952C84.069 30.0442 84.0154 29.9643 83.8814 29.9643C83.7474 29.9643 83.4168 30.3018 82.988 30.9767C82.4557 31.8341 81.9783 32.7239 81.5586 33.641C81.4067 33.9696 81.2101 34.3959 80.9779 34.9376C80.4895 36.0566 80.0398 36.6191 79.6288 36.625C79.5129 36.6403 79.3956 36.6098 79.3021 36.5401C79.2085 36.4703 79.1462 36.3669 79.1285 36.252C79.1027 35.8399 79.1698 35.4272 79.3251 35.0442C79.7031 33.9138 80.1506 32.8075 80.6652 31.7316C81.2608 30.4705 81.5943 29.7156 81.6658 29.4669C81.6658 29.4669 81.6658 29.387 81.6658 29.3071C81.6658 29.2272 81.6658 29.1295 81.7194 29.014L81.8087 28.863C81.8968 28.8151 81.9896 28.7764 82.0857 28.7476C82.1746 28.7351 82.2648 28.7351 82.3537 28.7476C82.5084 28.728 82.6652 28.7591 82.8004 28.8364C82.8987 28.8453 82.9165 28.9696 82.8719 29.1472L82.9076 29.1295ZM77.9492 32.6819L76.7789 32.7352H75.8855C75.6708 32.7494 75.4555 32.7222 75.2512 32.6552C75.2243 32.6475 75.1993 32.6341 75.1781 32.616C75.1568 32.5979 75.1397 32.5754 75.1278 32.5502C75.116 32.525 75.1097 32.4975 75.1094 32.4697C75.1091 32.4418 75.1148 32.4143 75.1261 32.3888C75.1434 32.323 75.1705 32.2601 75.2065 32.2023C75.2157 32.1859 75.2285 32.1718 75.244 32.161C75.2595 32.1503 75.2772 32.1431 75.2958 32.1401H75.3852C75.8041 32.127 76.2218 32.0885 76.6359 32.0247C77.0514 31.9814 77.4691 31.9636 77.8867 31.9714C78.1231 31.9498 78.361 31.9928 78.5746 32.0957C78.6342 32.1414 78.6757 32.2064 78.6921 32.2795C78.7084 32.3525 78.6984 32.4289 78.664 32.4954C78.6367 32.5975 78.581 32.6899 78.5031 32.7618C78.4334 32.8207 78.3445 32.8523 78.253 32.8506C78.2002 32.8638 78.145 32.8638 78.0922 32.8506C78.0259 32.7978 77.9686 32.7349 77.9224 32.6641L77.9492 32.6819ZM70.0069 34.1028C69.9064 32.6114 70.039 31.1134 70.4 29.6623L70.4804 29.2449C70.4607 29.218 70.4456 29.188 70.4357 29.1561C70.4308 29.1357 70.4308 29.1144 70.4357 29.0939C70.4605 29.0352 70.4971 28.9821 70.5432 28.9378C70.5892 28.8936 70.6439 28.8591 70.7037 28.8364C70.8569 28.7633 71.0252 28.7268 71.1951 28.7298C71.3861 28.7163 71.575 28.7768 71.7222 28.8986C71.7806 28.9471 71.8223 29.0126 71.8415 29.0858C71.8607 29.159 71.8565 29.2364 71.8294 29.3071C71.8329 29.3277 71.8329 29.3487 71.8294 29.3693L71.7222 29.4581L71.5793 29.7689C71.5386 29.8526 71.5028 29.9386 71.4721 30.0264C71.3225 30.5012 71.2178 30.9888 71.1594 31.4829C71.093 32.016 71.0721 32.5538 71.0968 33.0904C71.9078 32.3109 72.6772 31.4898 73.4018 30.6304C73.9405 30.07 74.3867 29.4286 74.7241 28.7298V28.6321C74.7598 28.5042 74.8239 28.3858 74.9117 28.2858C74.9433 28.2506 74.9818 28.2222 75.0248 28.2024C75.0678 28.1825 75.1144 28.1716 75.1618 28.1703C75.215 28.1641 75.2689 28.1724 75.3177 28.1943C75.3664 28.2162 75.4083 28.2509 75.4388 28.2947C75.4624 28.3478 75.4746 28.4053 75.4746 28.4634C75.4746 28.5215 75.4624 28.579 75.4388 28.6321C75.1172 29.2123 74.7073 29.7395 74.2237 30.1952C73.509 30.9886 72.4578 32.0543 71.07 33.3923C71.0804 34.0002 71.1983 34.6014 71.4185 35.1685C71.471 35.3301 71.5718 35.4719 71.7075 35.5751C71.8432 35.6782 72.0072 35.7378 72.1779 35.7458C72.2777 35.7504 72.3769 35.728 72.4649 35.6811C72.553 35.6342 72.6267 35.5645 72.6782 35.4794C72.7943 35.3018 72.8836 35.213 72.9462 35.213C72.9708 35.2109 72.9955 35.2156 73.0175 35.2265C73.0396 35.2375 73.0582 35.2543 73.0713 35.2751C73.0813 35.299 73.0865 35.3247 73.0865 35.3506C73.0865 35.3765 73.0813 35.4022 73.0713 35.4261C73.0105 35.6057 72.8826 35.7552 72.7139 35.8435C72.5116 35.954 72.2835 36.0092 72.0528 36.0034C71.6181 36.0194 71.1924 35.8773 70.8556 35.6037C70.497 35.2786 70.237 34.8602 70.1052 34.3959C69.787 34.7213 69.4887 35.0653 69.2118 35.4261C68.953 35.7295 68.7283 36.06 68.5417 36.4119C68.4792 36.5813 68.4015 36.7448 68.3094 36.9003C68.2771 36.9398 68.2362 36.9715 68.1898 36.993C68.1433 37.0146 68.0926 37.0254 68.0414 37.0247C67.961 37.0247 67.9074 37.0247 67.8895 36.9536C67.8636 36.8819 67.8636 36.8034 67.8895 36.7316C68.0508 36.3689 68.2678 36.0334 68.5328 35.7369C68.8991 35.3106 69.3904 34.76 70.0069 34.1028ZM64.1105 33.57L63.9407 34.1028C63.7041 34.6639 63.6418 35.2825 63.762 35.879C63.8258 36.0612 63.9474 36.2178 64.1086 36.3251C64.2698 36.4325 64.4617 36.4848 64.6554 36.4741C65.123 36.4697 65.5758 36.3103 65.9419 36.0211C66.3429 35.6941 66.6509 35.2685 66.8353 34.7867C66.8395 34.7602 66.8395 34.7332 66.8353 34.7067C66.8316 34.6624 66.8316 34.6178 66.8353 34.5735C66.8545 34.4966 66.8984 34.428 66.9604 34.3781C67.0206 34.3364 67.0925 34.3147 67.1659 34.316C67.2047 34.3109 67.2442 34.3176 67.2792 34.335C67.3142 34.3524 67.3432 34.3798 67.3624 34.4137C67.3801 34.4559 67.3892 34.5011 67.3892 34.5469C67.3892 34.5926 67.3801 34.6379 67.3624 34.6801C67.1424 35.2668 66.7463 35.7721 66.2278 36.1277C65.7254 36.5447 65.0954 36.7796 64.441 36.7938C64.0983 36.815 63.7582 36.7228 63.4737 36.5316C63.1893 36.3404 62.9765 36.061 62.8686 35.7369C62.6043 34.8612 62.6453 33.9224 62.9848 33.0726C63.2858 32.1771 63.7226 31.3326 64.2802 30.5682C64.7965 29.8106 65.4367 29.1442 66.1742 28.5966L66.5584 28.49C66.702 28.4407 66.8531 28.4166 67.0051 28.419C67.123 28.4184 67.2394 28.4458 67.3446 28.4989C67.4857 28.579 67.6176 28.6743 67.7377 28.7831C67.9222 28.8063 68.097 28.8788 68.2433 28.993C68.3896 29.1072 68.502 29.2587 68.5685 29.4314C68.6994 29.8854 68.6743 30.3698 68.497 30.808C68.2107 31.651 67.6942 32.3982 67.0051 32.9661C66.4606 33.5098 65.7377 33.8407 64.9681 33.8986C64.7954 33.9057 64.6229 33.8816 64.4589 33.8275C64.3264 33.7702 64.2099 33.6818 64.1194 33.57H64.1105ZM64.3963 32.8151C64.4678 32.8151 64.5303 32.9394 64.584 33.1881C64.6376 33.4367 64.843 33.5522 65.2183 33.5522C65.5146 33.531 65.8033 33.449 66.0662 33.3114C66.3292 33.1739 66.5606 32.9837 66.746 32.7529C67.2772 32.182 67.6713 31.4988 67.8985 30.7547C68.0492 30.3828 68.0864 29.9752 68.0057 29.5824C67.9759 29.4524 67.8998 29.3376 67.7914 29.2592C67.6829 29.1808 67.5496 29.1442 67.416 29.1561C66.9961 29.1561 66.5226 29.4847 65.9955 30.1241C65.3475 30.9645 64.8101 31.8837 64.3963 32.8595V32.8151ZM58.3391 34.6357C58.3635 34.0398 58.4291 33.4464 58.5356 32.8595C58.9544 30.9671 59.7603 29.1805 60.9031 27.6108H60.8495L60.6887 27.5309C60.3582 27.5309 59.9919 27.4687 59.5809 27.451C58.4642 27.451 58.5446 27.451 57.4367 27.5042C56.999 28.5433 56.5433 29.7778 55.918 31.3764C55.7303 31.8648 55.641 32.1401 55.507 32.5309L55.1943 33.419C55.0246 33.943 54.8906 34.4048 54.7833 34.8222C54.6761 35.2396 54.5868 35.6215 54.5153 35.9856C54.5205 36.0654 54.5205 36.1455 54.5153 36.2254C54.5253 36.2782 54.5253 36.3324 54.5153 36.3852C54.4868 36.4731 54.4391 36.5536 54.3759 36.6211C54.3126 36.6886 54.2351 36.7415 54.149 36.776C53.901 36.8691 53.6366 36.9114 53.3718 36.9003C53.1678 36.8882 52.9761 36.7993 52.8357 36.6517C52.657 36.4859 52.5856 36.3468 52.6213 36.2343C52.6414 36.1851 52.6653 36.1376 52.6928 36.0922C52.7341 36.0302 52.77 35.9648 52.8 35.8968L53.3718 34.1206C53.9674 32.3029 54.6285 30.5267 55.3551 28.792C55.5398 28.3539 55.7303 27.9216 55.9269 27.4954C55.4623 27.4954 55.641 27.4954 55.239 27.4954C54.9351 27.4901 54.6326 27.5382 54.3456 27.6375L54.1937 27.7351H54.1133C54.0398 27.7395 53.9664 27.7246 53.9006 27.6918C53.8347 27.6591 53.7787 27.6097 53.7381 27.5486C53.6807 27.4265 53.6595 27.2907 53.6769 27.157C53.6943 27.0234 53.7496 26.8974 53.8363 26.7938C53.8642 26.7653 53.8975 26.7427 53.9344 26.7275C53.9712 26.7122 54.0108 26.7046 54.0508 26.705H54.1401H54.2026C54.5332 26.705 54.3992 26.705 56.1413 26.5185H56.4093C56.8501 25.5948 57.3117 24.7067 57.7941 23.8542C57.7941 23.7653 57.7941 23.6854 57.7941 23.641C57.7903 23.5967 57.7903 23.5521 57.7941 23.5078C57.8463 23.3558 57.9507 23.2269 58.0889 23.1437C58.2525 23.0751 58.4329 23.0566 58.6071 23.0904C58.8344 23.0852 59.0562 23.1608 59.2325 23.3035C59.4112 23.4456 59.4737 23.5877 59.429 23.7298C59.3747 23.8562 59.2847 23.9641 59.1699 24.0407V24.0407C58.6849 24.8259 58.2579 25.6451 57.8924 26.4918C58.2167 26.4358 58.5466 26.4179 58.8751 26.4385H60.9389H61.055H61.2248C61.332 26.4385 61.4124 26.5185 61.4749 26.6872C61.498 26.7502 61.513 26.8158 61.5196 26.8826C61.7953 26.5653 62.0938 26.2685 62.413 25.9945C62.7281 25.6807 63.1472 25.4913 63.5923 25.4616C64.0747 25.4616 64.3338 25.728 64.3785 26.2787C64.3645 27.1596 64.1952 28.0314 63.8782 28.8542C62.9235 31.2582 61.2646 33.3218 59.1163 34.7778C59.053 35.2795 59.1018 35.789 59.2593 36.2698C59.3184 36.4094 59.4199 36.5273 59.5497 36.6069C59.6794 36.6865 59.8308 36.7239 59.9829 36.7138C60.1515 36.724 60.3201 36.6947 60.4753 36.6284C60.6304 36.5621 60.7678 36.4606 60.8763 36.332C61.0908 36.0744 61.2248 35.9501 61.2694 35.9501C61.2951 35.9477 61.3209 35.9532 61.3433 35.9659C61.3657 35.9786 61.3836 35.9979 61.3945 36.0211C61.4189 36.0809 61.4189 36.1478 61.3945 36.2076C61.277 36.4683 61.0671 36.677 60.8049 36.7938C60.501 36.9703 60.1562 37.0652 59.8043 37.0691C59.6017 37.0802 59.3995 37.0414 59.2156 36.9562C59.0317 36.871 58.8718 36.742 58.75 36.5806C58.4686 36.1305 58.3228 35.6097 58.3301 35.0797H58.1336H57.812C57.5819 35.0953 57.353 35.0361 57.1598 34.911C57.0936 34.8707 57.0433 34.809 57.0173 34.7363C56.9913 34.6636 56.9911 34.5842 57.0168 34.5114C57.034 34.4574 57.0685 34.4106 57.1151 34.3781C57.1604 34.3404 57.2169 34.3185 57.2759 34.316C57.3295 34.316 57.3921 34.3781 57.4814 34.5114C57.5329 34.5791 57.601 34.6327 57.6792 34.6669C57.7574 34.7011 57.8431 34.7148 57.9281 34.7067H58.1693L58.3391 34.6357ZM59.1342 34.3604C60.9365 33.0927 62.315 31.317 63.092 29.2627C63.3507 28.5348 63.5304 27.7816 63.628 27.0158C63.628 26.5007 63.5744 26.2343 63.3332 26.2343C61.9752 26.2343 59.5988 32.0868 59.3397 33.2147C59.2498 33.5861 59.1842 33.9628 59.1431 34.3426L59.1342 34.3604ZM64.986 22.6463C65.2093 22.9483 63.896 23.8186 63.3957 23.419C62.1271 22.4243 60.5279 22.3 58.4374 22.3C56.2685 22.2606 54.1225 22.7452 52.1835 23.7121C51.4102 24.0373 50.71 24.5128 50.124 25.1106C49.5379 25.7084 49.0779 26.4165 48.7708 27.1934C48.6184 27.5668 48.572 27.9745 48.6366 28.3722C48.7012 28.7699 48.8743 29.1424 49.137 29.4492C49.4619 29.7668 49.8522 30.0106 50.2809 30.1639C50.7097 30.3173 51.1668 30.3764 51.6207 30.3373C51.8972 30.3388 52.1729 30.309 52.4426 30.2485C52.6858 30.1952 52.9204 30.1085 53.1395 29.9909C53.1908 29.9185 53.2543 29.8554 53.3271 29.8044C53.3755 29.775 53.4312 29.7596 53.4879 29.76C53.5504 29.76 53.5951 29.76 53.613 29.76C53.6232 29.7776 53.6285 29.7975 53.6285 29.8177C53.6285 29.838 53.6232 29.8579 53.613 29.8755C53.5415 30.1153 53.2646 30.3373 52.8089 30.5327C52.3246 30.731 51.8051 30.8307 51.2812 30.8257C50.7937 30.8662 50.3034 30.7934 49.8491 30.6131C49.3948 30.4327 48.9889 30.1498 48.6635 29.7867C48.3776 29.4106 48.1972 28.9658 48.1407 28.4977C48.0842 28.0296 48.1536 27.555 48.3419 27.1224C48.6545 26.2667 49.1621 25.4946 49.825 24.8666C50.6426 24.0685 51.5837 23.4058 52.6124 22.9039C53.683 22.3659 54.8135 21.9546 55.9805 21.6783C57.1292 21.3943 58.3079 21.2482 59.4916 21.2431C61.7876 21.2254 63.8156 21.4474 64.9949 22.6286L64.986 22.6463Z" stroke="white" stroke-width="0.56" stroke-linecap="round" stroke-linejoin="round"/>
<path d="M30.3223 27.5312C30.2687 29.9468 35.504 27.0161 35.8524 23.739C45.1706 12.4957 70.2663 18.4548 74.4831 19.5383C82.9257 21.6697 88.7775 21.4832 91.6721 20.4264C95.1564 19.1564 98.73 16.1635 98.3101 12.7443C98.3207 12.0154 98.1777 11.2924 97.8902 10.6218C95.889 5.83492 89.3761 4.9113 82.7024 6.06583C81.4835 6.27499 80.2759 6.54472 79.0841 6.874C77.8959 7.20259 76.7077 7.60224 75.5105 8.04629C69.4622 10.382 67.9702 8.45481 66.5318 6.58092C61.8683 0.506324 51.3083 -0.816944 40.5249 0.426395C14.2947 3.4637 -8.43344 29.858 3.06463 51.128C7.35296 60.4974 19.4764 61.7852 31.0638 58.0463C34.921 56.7467 38.6723 55.1553 42.2849 53.2861C44.2862 52.2825 46.6001 50.9681 48.0116 52.3092C51.5852 55.7017 56.0522 59.414 62.8421 57.6999C66.0696 56.8809 69.1047 55.4417 71.7761 53.4637C81.2998 46.1813 70.1054 42.922 64.2447 41.9983C62.9653 41.7683 61.6584 41.7294 60.3674 41.8829C58.0624 42.2292 59.7688 42.8864 60.4746 42.9752C67.05 43.7834 75.3318 48.0996 68.5688 51.6431C63.5479 54.3074 56.3471 50.5507 53.1308 47.469C49.9146 44.3873 45.5637 45.6928 40.7572 48.1085C37.5435 49.7622 34.2073 51.1695 30.7779 52.318C21.9958 55.1511 12.3739 54.6537 9.07722 47.4424C0.804327 29.8669 21.9958 9.05872 40.5071 6.43883C49.1195 5.22213 57.571 6.50988 61.0553 10.9859C63.6551 14.3607 66.7641 16.9184 79.0752 10.9149C83.7923 8.61467 89.4744 8.16174 93.2535 9.92018C96.5054 11.4299 94.4953 17.025 89.8139 18.5791C86.1688 19.7692 80.5225 19.0054 75.3676 18.2061C65.1649 16.6253 47.9402 13.3749 36.7369 20.7994C34.0627 22.4707 31.8563 24.7862 30.3223 27.5312Z" fill="white"/>
<path fill-rule="evenodd" clip-rule="evenodd" d="M37.8266 27.531C38.3164 27.531 38.7953 27.6755 39.2024 27.9462C39.6096 28.2169 39.9268 28.6017 40.1138 29.0517C40.3008 29.5017 40.3493 29.9968 40.2531 30.4742C40.1569 30.9517 39.9203 31.39 39.5733 31.7337C39.2263 32.0774 38.7845 32.311 38.3039 32.4049C37.8233 32.4988 37.3254 32.4488 36.8734 32.2613C36.4213 32.0737 36.0354 31.757 35.7646 31.3513C35.4938 30.9456 35.3501 30.4691 35.3519 29.9822C35.3542 29.3313 35.616 28.7078 36.0799 28.2484C36.5437 27.789 37.1718 27.531 37.8266 27.531ZM32.7968 24.1473C28.8747 27.5576 26.4894 36.6607 33.3953 38.3125C37.1566 39.2006 39.1667 38.6234 42.3293 37.0337C44.7862 35.8259 47.6361 29.9999 47.0197 26.8916C45.7868 20.4262 36.4418 20.9591 32.7968 24.1296V24.1473Z" fill="white"/>
<path fill-rule="evenodd" clip-rule="evenodd" d="M153.665 30.3908C152.611 31.2789 151.592 34.1741 153.799 34.707C154.201 34.8251 154.624 34.8553 155.039 34.7955C155.454 34.7357 155.851 34.5874 156.202 34.3606C156.863 34.032 157.775 32.4245 157.462 31.643C157.354 31.2662 157.154 30.9213 156.882 30.6384C156.609 30.3555 156.27 30.1431 155.896 30.0197C155.522 29.8962 155.123 29.8655 154.734 29.9302C154.345 29.9949 153.978 30.153 153.665 30.3908Z" fill="white"/>
<path fill-rule="evenodd" clip-rule="evenodd" d="M160.106 20.0265C159.052 20.9146 158.034 23.8098 160.24 24.3427C160.642 24.4614 161.065 24.4919 161.48 24.4321C161.895 24.3723 162.292 24.2236 162.644 23.9963C163.305 23.6677 164.216 22.0514 163.903 21.2787C163.796 20.9011 163.598 20.5553 163.325 20.2714C163.053 19.9874 162.715 19.774 162.34 19.6497C161.966 19.5253 161.567 19.4939 161.177 19.558C160.788 19.6221 160.42 19.7799 160.106 20.0176" fill="white"/>
<path fill-rule="evenodd" clip-rule="evenodd" d="M144.347 30.3908C143.293 31.2789 142.274 34.1741 144.481 34.7069C144.883 34.8251 145.306 34.8553 145.721 34.7955C146.135 34.7357 146.532 34.5873 146.884 34.3606C147.545 34.032 148.456 32.4245 148.144 31.643C148.037 31.2654 147.838 30.9196 147.566 30.6356C147.293 30.3517 146.955 30.1383 146.581 30.0139C146.207 29.8896 145.807 29.8581 145.418 29.9223C145.029 29.9864 144.661 30.1442 144.347 30.3819" fill="white"/>
<path fill-rule="evenodd" clip-rule="evenodd" d="M150.806 20.0265C149.752 20.9146 148.733 23.8098 150.94 24.3427C151.342 24.4614 151.765 24.4919 152.18 24.4321C152.595 24.3723 152.992 24.2236 153.343 23.9963C154.004 23.6677 154.916 22.0514 154.603 21.2787C154.496 20.9011 154.297 20.5553 154.025 20.2714C153.753 19.9874 153.415 19.774 153.04 19.6497C152.666 19.5253 152.267 19.4939 151.877 19.558C151.488 19.6221 151.12 19.7799 150.806 20.0176" fill="white"/>
<path fill-rule="evenodd" clip-rule="evenodd" d="M162.599 30.3908C161.545 31.2789 160.526 34.1741 162.733 34.707C163.135 34.8251 163.558 34.8553 163.973 34.7955C164.388 34.7357 164.785 34.5874 165.136 34.3606C165.797 34.032 166.709 32.4245 166.396 31.643C166.288 31.2662 166.088 30.9213 165.816 30.6384C165.543 30.3555 165.204 30.1431 164.83 30.0197C164.456 29.8962 164.057 29.8655 163.668 29.9302C163.279 29.9949 162.912 30.153 162.599 30.3908Z" fill="white"/>
<path fill-rule="evenodd" clip-rule="evenodd" d="M169.076 20.0265C168.022 20.9146 167.003 23.8098 169.21 24.3427C169.612 24.4614 170.035 24.4919 170.45 24.4321C170.865 24.3723 171.262 24.2236 171.613 23.9963C172.275 23.6677 173.186 22.0514 172.873 21.2787C172.766 20.9011 172.567 20.5553 172.295 20.2714C172.023 19.9874 171.685 19.774 171.31 19.6497C170.936 19.5253 170.537 19.4939 170.147 19.558C169.758 19.6221 169.39 19.7799 169.076 20.0176" fill="white"/>
<path fill-rule="evenodd" clip-rule="evenodd" d="M109.611 33.1083C109.254 33.4102 108.915 34.3783 109.611 34.5559C109.746 34.5953 109.887 34.6054 110.026 34.5855C110.165 34.5656 110.298 34.5161 110.415 34.4404C110.558 34.3415 110.672 34.2078 110.747 34.0523C110.822 33.8967 110.856 33.7245 110.844 33.5523C110.809 33.4249 110.742 33.308 110.651 33.212C110.559 33.116 110.446 33.0438 110.319 33.0017C110.193 32.9596 110.059 32.949 109.927 32.9706C109.796 32.9923 109.672 33.0457 109.567 33.126" fill="white"/>
</g>
<defs>
<clipPath id="clip0">
<rect width="176" height="60" fill="white"/>
</clipPath>
</defs>
</svg>
